<svg width="33" height="33" viewBox="0 0 33 33" fill="none" xmlns="http://www.w3.org/2000/svg">
<path d="M32.0964 6.01924C32.0966 4.8863 31.777 3.7763 31.1744 2.81693C30.5717 1.85757 29.7105 1.08779 28.6898 0.596159C27.6691 0.104524 26.5304 -0.0890023 25.4045 0.03784C24.2787 0.164682 23.2116 0.606741 22.3258 1.31317C21.4401 2.0196 20.7718 2.9617 20.3977 4.03111C20.0237 5.10051 19.9591 6.25379 20.2114 7.35828C20.4637 8.46277 21.0226 9.47361 21.8239 10.2745C22.6252 11.0754 23.6364 11.6339 24.741 11.8857V12.0374C24.7402 12.7465 24.4581 13.4263 23.9567 13.9277C23.4553 14.4291 22.7755 14.7112 22.0664 14.7121L10.0301 14.7123C9.09079 14.7112 8.16792 14.9589 7.35543 15.4303V11.8857C8.79802 11.5569 10.0689 10.7082 10.9254 9.50168C11.7819 8.29519 12.1639 6.81547 11.9984 5.34517C11.833 3.87488 11.1317 2.51705 10.0285 1.53105C8.92539 0.545054 7.49766 0 6.01808 0C4.53851 0 3.11078 0.545054 2.00762 1.53105C0.90446 2.51705 0.203186 3.87488 0.0377515 5.34517C-0.127683 6.81547 0.254316 8.29519 1.11078 9.50168C1.96725 10.7082 3.23815 11.5569 4.68074 11.8857V20.2134C3.23815 20.5422 1.96725 21.3909 1.11078 22.5974C0.254316 23.8039 -0.127683 25.2836 0.0377515 26.7539C0.203186 28.2242 0.90446 29.5821 2.00762 30.5681C3.11078 31.5541 4.53851 32.0991 6.01808 32.0991C7.49766 32.0991 8.92539 31.5541 10.0285 30.5681C11.1317 29.5821 11.833 28.2242 11.9984 26.7539C12.1639 25.2836 11.7819 23.8039 10.9254 22.5974C10.0689 21.3909 8.79802 20.5422 7.35543 20.2134V20.0617C7.35626 19.3526 7.63832 18.6728 8.13974 18.1713C8.64117 17.6699 9.32101 17.3879 10.0301 17.387L22.0664 17.3868C23.4847 17.3851 24.8443 16.821 25.8471 15.8181C26.85 14.8153 27.4141 13.4556 27.4157 12.0374V11.8857C28.7442 11.5811 29.9304 10.8353 30.7805 9.76985C31.6306 8.7044 32.0945 7.38227 32.0964 6.01924ZM2.67471 6.01924C2.67471 5.35798 2.8708 4.71157 3.23817 4.16176C3.60555 3.61194 4.12771 3.18342 4.73863 2.93036C5.34955 2.67731 6.02179 2.6111 6.67034 2.74011C7.31889 2.86911 7.91463 3.18754 8.38221 3.65512C8.84978 4.12269 9.16821 4.71843 9.29721 5.36698C9.42622 6.01553 9.36001 6.68777 9.10696 7.29869C8.85391 7.90961 8.42538 8.43178 7.87556 8.79915C7.32575 9.16652 6.67934 9.36261 6.01808 9.36261C5.13167 9.36161 4.28185 9.00904 3.65507 8.38225C3.02828 7.75547 2.67571 6.90565 2.67471 6.01924ZM9.36146 26.0799C9.36146 26.7411 9.16537 27.3875 8.798 27.9374C8.43062 28.4872 7.90846 28.9157 7.29754 29.1687C6.68662 29.4218 6.01437 29.488 5.36582 29.359C4.71727 29.23 4.12154 28.9116 3.65396 28.444C3.18638 27.9764 2.86796 27.3807 2.73895 26.7321C2.60995 26.0836 2.67616 25.4113 2.92921 24.8004C3.18226 24.1895 3.61079 23.6673 4.16061 23.3C4.71042 22.9326 5.35683 22.7365 6.01808 22.7365C6.90449 22.7375 7.75431 23.0901 8.3811 23.7169C9.00789 24.3436 9.36046 25.1935 9.36146 26.0799ZM26.0783 9.36261C25.4171 9.36261 24.7707 9.16652 24.2208 8.79915C23.671 8.43178 23.2425 7.90961 22.9894 7.29869C22.7364 6.68777 22.6702 6.01553 22.7992 5.36698C22.9282 4.71843 23.2466 4.12269 23.7142 3.65512C24.1818 3.18754 24.7775 2.86911 25.4261 2.74011C26.0746 2.6111 26.7468 2.67731 27.3578 2.93036C27.9687 3.18342 28.4909 3.61194 28.8582 4.16176C29.2256 4.71157 29.4217 5.35798 29.4217 6.01924C29.4207 6.90565 29.0681 7.75547 28.4413 8.38225C27.8145 9.00904 26.9647 9.36161 26.0783 9.36261Z" fill="#6F60B5"/>
</svg>
