<svg width="20" height="15" viewBox="0 0 20 15" fill="none" xmlns="http://www.w3.org/2000/svg">
<path d="M17.2233 0H2.77668C1.24324 0 0 1.24324 0 2.77668V11.9167C0 13.4501 1.24324 14.6934 2.77668 14.6934H17.2233C18.7567 14.6934 20 13.4501 20 11.9167V2.77668C20 1.24324 18.7567 0 17.2233 0ZM6.95961 9.91387L3.07133 13.2311C2.79707 13.4651 2.38477 13.4326 2.15074 13.158C1.91668 12.8838 1.94922 12.4715 2.22379 12.2375L6.11207 8.92027C6.38629 8.68621 6.79855 8.71875 7.03262 8.99332C7.26668 9.26754 7.23414 9.67984 6.95961 9.91387ZM10 8.65277C9.47992 8.65148 8.97578 8.47867 8.58164 8.13781L8.58195 8.13812L8.5807 8.13719C8.58102 8.1375 8.58137 8.1375 8.58164 8.13781L2.6157 2.95973C2.34305 2.72309 2.31402 2.31082 2.55031 2.03852C2.78691 1.76586 3.19922 1.73684 3.47148 1.97312L9.4391 7.1525C9.56664 7.26602 9.7768 7.34797 10 7.34668C10.2229 7.34734 10.4295 7.26762 10.5641 7.15027L10.567 7.14773L16.5285 1.97316C16.8008 1.73688 17.2131 1.7659 17.4497 2.03855C17.6859 2.31082 17.657 2.72313 17.3843 2.95977L11.4167 8.13941C11.0239 8.47672 10.5204 8.65211 10 8.65277ZM17.8495 13.158C17.6155 13.4326 17.2032 13.4651 16.929 13.2311L13.0407 9.91387C12.7662 9.6798 12.7336 9.26754 12.9677 8.99332C13.2017 8.71875 13.614 8.68625 13.8882 8.92027L17.7765 12.2375C18.0511 12.4715 18.0836 12.8838 17.8495 13.158Z" fill="#6f60b5"/>
</svg>
