<svg width="42" height="47" viewBox="0 0 42 47" fill="none" xmlns="http://www.w3.org/2000/svg">
<path fill-rule="evenodd" clip-rule="evenodd" d="M39.3533 12.7473L26.6677 0.0109L27.8279 8.16365C27.8315 8.63305 28.6504 11.6637 31.3279 11.6637L39.3533 12.7473Z" fill="black"/>
<path d="M26.6677 0.0109V8.0686C26.6677 9.68569 27.6453 12.7473 31.3477 12.7473H39.3533L31.3279 11.6637C28.6504 11.6637 27.8315 8.63305 27.8279 8.16365L26.6677 0.0109Z" fill="white"/>
<path d="M3.16409 17.5L0.5 20.5H3.16411L3.16409 17.5Z" fill="white"/>
<path d="M41.5 20.5L39.4221 17.5L39.4221 20.5H41.5Z" fill="white"/>
<path d="M0.5 33.5H3.16423L3.16411 20.5H0.5V33.5Z" fill="black"/>
<path d="M41.5 33.5V20.5H39.4221L39.4222 33.5H41.5Z" fill="black"/>
<path fill-rule="evenodd" clip-rule="evenodd" d="M36.5752 46.3263C37.0532 46.3209 39.4223 46.1552 39.4223 43.4672L39.4222 33.5H3.16423L3.16432 43.4672C3.16943 43.9409 3.33071 46.3263 6.00898 46.3263H36.5752ZM3.16411 20.5L3.16409 17.5L3.16396 2.85917C3.16396 0.168525 5.53744 0.0054 6.00862 0H26.6567L26.6677 0.0109V8.0686C26.6677 9.68569 27.6453 12.7473 31.3477 12.7473H39.3533L39.422 12.8159L39.4221 17.5L39.4221 20.5H3.16411Z" fill="black"/>
<path d="M39.4221 20.5H3.16411L3.16423 33.5H39.4222L39.4221 20.5Z" fill="black"/>
<path d="M0.5 32.9V21.1C0.5 20.7686 0.768629 20.5 1.1 20.5H40.9C41.2314 20.5 41.5 20.7686 41.5 21.1V32.9C41.5 33.2314 41.2314 33.5 40.9 33.5H1.1C0.768629 33.5 0.5 33.2314 0.5 32.9Z" stroke="white"/>
<path d="M11.7539 23.7273H13.2738V28.7983C13.2738 29.267 13.1684 29.6742 12.9577 30.0199C12.7494 30.3655 12.4594 30.6319 12.0877 30.8189C11.716 31.0059 11.284 31.0994 10.7915 31.0994C10.3536 31.0994 9.95583 31.0225 9.59835 30.8686C9.24323 30.7124 8.96151 30.4756 8.75318 30.1584C8.54484 29.8388 8.44186 29.4375 8.44423 28.9545H9.97477C9.9795 29.1463 10.0186 29.3108 10.092 29.4482C10.1677 29.5831 10.2707 29.6873 10.4009 29.7607C10.5335 29.8317 10.6897 29.8672 10.8697 29.8672C11.059 29.8672 11.2189 29.8269 11.3491 29.7464C11.4816 29.6636 11.5823 29.5429 11.6509 29.3842C11.7196 29.2256 11.7539 29.0303 11.7539 28.7983V23.7273ZM14.5451 31V23.7273H17.4144C17.966 23.7273 18.4359 23.8326 18.8242 24.0433C19.2125 24.2517 19.5084 24.5417 19.712 24.9134C19.918 25.2827 20.0209 25.7088 20.0209 26.1918C20.0209 26.6747 19.9168 27.1009 19.7084 27.4702C19.5001 27.8395 19.1983 28.1271 18.8029 28.3331C18.4099 28.5391 17.934 28.642 17.3753 28.642H15.5465V27.4098H17.1268C17.4227 27.4098 17.6665 27.3589 17.8583 27.2571C18.0524 27.1529 18.1968 27.0097 18.2915 26.8274C18.3886 26.6428 18.4371 26.4309 18.4371 26.1918C18.4371 25.9503 18.3886 25.7396 18.2915 25.5597C18.1968 25.3774 18.0524 25.2365 17.8583 25.1371C17.6642 25.0353 17.418 24.9844 17.1197 24.9844H16.0827V31H14.5451ZM21.0197 31V23.7273H25.9203V24.995H22.5573V26.728H25.6681V27.9957H22.5573V29.7322H25.9345V31H21.0197ZM31.9652 26.0781C31.9155 25.9053 31.8456 25.7526 31.7557 25.62C31.6657 25.4851 31.5556 25.3714 31.4254 25.2791C31.2976 25.1844 31.1508 25.1122 30.9851 25.0625C30.8217 25.0128 30.6406 24.9879 30.4417 24.9879C30.0701 24.9879 29.7434 25.0803 29.4616 25.2649C29.1823 25.4496 28.9645 25.7183 28.8082 26.071C28.652 26.4214 28.5738 26.8499 28.5738 27.3565C28.5738 27.8632 28.6508 28.294 28.8047 28.6491C28.9586 29.0043 29.1764 29.2753 29.4581 29.4624C29.7398 29.647 30.0724 29.7393 30.4559 29.7393C30.804 29.7393 31.1011 29.6778 31.3473 29.5547C31.5959 29.4292 31.7853 29.2528 31.9155 29.0256C32.048 28.7983 32.1143 28.5296 32.1143 28.2195L32.4268 28.2656H30.5518V27.108H33.5952V28.0241C33.5952 28.6634 33.4602 29.2126 33.1903 29.6719C32.9204 30.1288 32.5488 30.4815 32.0753 30.7301C31.6018 30.9763 31.0596 31.0994 30.4488 31.0994C29.767 31.0994 29.1681 30.9491 28.652 30.6484C28.1359 30.3454 27.7334 29.9157 27.4446 29.3594C27.1581 28.8007 27.0149 28.1378 27.0149 27.3707C27.0149 26.7812 27.1001 26.2557 27.2706 25.794C27.4434 25.33 27.6849 24.937 27.995 24.6151C28.3051 24.2931 28.6662 24.0481 29.0781 23.88C29.49 23.7119 29.9363 23.6278 30.4169 23.6278C30.8288 23.6278 31.2123 23.6882 31.5675 23.8089C31.9226 23.9273 32.2374 24.0954 32.5121 24.3132C32.789 24.531 33.0151 24.7902 33.1903 25.0909C33.3655 25.3892 33.478 25.7183 33.5277 26.0781H31.9652Z" fill="white"/>
</svg>
