<svg width="37" height="26" viewBox="0 0 37 26" fill="none" xmlns="http://www.w3.org/2000/svg">
<path d="M22.9288 18.182C23.4071 19.1398 24.1491 19.9449 25.0697 20.5047C25.9903 21.0646 27.0521 21.3564 28.1331 21.3468C30.319 21.3468 31.7156 20.267 31.7156 18.776C31.7156 16.9895 30.2804 16.3559 27.8756 15.3157L26.5561 14.7568C22.75 13.1546 20.2204 11.1473 20.2204 6.90418C20.2204 2.99463 23.2356 0.0202036 27.9465 0.0202036C29.4755 -0.0894061 31.0033 0.248712 32.3388 0.992285C33.6743 1.73586 34.7584 2.85189 35.4554 4.20085L31.3472 6.80671C31.0782 6.13826 30.6097 5.5665 30.0039 5.16742C29.3981 4.76834 28.6838 4.56083 27.9558 4.57246C27.6385 4.54092 27.318 4.57505 27.0148 4.67268C26.7115 4.77032 26.4322 4.92931 26.1946 5.13953C25.9571 5.34974 25.7664 5.60656 25.6349 5.89361C25.5034 6.18066 25.4339 6.49163 25.4308 6.80671C25.4308 8.37083 26.4112 9.00288 28.668 9.97151L29.9875 10.5289C34.4703 12.4281 37 14.3639 37 18.7166C37 23.409 33.2695 25.9798 28.2579 25.9798C26.3058 26.1025 24.3595 25.6645 22.6538 24.7186C20.948 23.7728 19.5558 22.3595 18.6449 20.6493L22.9288 18.182ZM4.29472 18.6389C5.12407 20.0919 5.87788 21.3194 7.68611 21.3194C9.4188 21.3194 10.5133 20.6493 10.5133 18.045V0.324804H15.7884V18.1181C15.7884 23.5141 12.5851 25.9707 7.91117 25.9707C6.26017 26.059 4.62079 25.6514 3.20871 24.8016C1.79663 23.9518 0.677999 22.6996 0 21.2098L4.29472 18.6389Z" fill="#6F60B5"/>
</svg>
