<svg width="21" height="21" viewBox="0 0 21 21" fill="none" xmlns="http://www.w3.org/2000/svg">
<g clip-path="url(#clip0_201_11)">
<path d="M18.8852 0.658936H2.11146C2.10621 0.658936 2.1003 0.658936 2.09374 0.658936C1.3069 0.658936 0.668367 1.29156 0.65918 2.07578V18.923C0.668367 19.7079 1.3069 20.3412 2.09374 20.3412C2.1003 20.3412 2.10621 20.3412 2.11277 20.3412H18.8832C18.8885 20.3412 18.8951 20.3412 18.9016 20.3412C19.6891 20.3412 20.329 19.7092 20.3414 18.9243V18.923V2.07709C20.329 1.29156 19.6891 0.658936 18.901 0.658936C18.8944 0.658936 18.8885 0.658936 18.8819 0.658936H18.8852ZM6.49652 17.4314H3.57359V8.03978H6.49652V17.4314ZM5.03571 6.75484C4.10055 6.75484 3.34324 5.99687 3.34324 5.06237C3.34324 4.12787 4.10121 3.3699 5.03571 3.3699C5.97021 3.3699 6.72818 4.12722 6.72818 5.06172C6.72818 5.06237 6.72818 5.06303 6.72818 5.06434C6.72818 5.99819 5.97087 6.7555 5.03702 6.7555C5.03637 6.7555 5.03571 6.7555 5.03505 6.7555L5.03571 6.75484ZM17.427 17.4314H14.5126V12.8645C14.5126 11.7752 14.4903 10.3741 12.9941 10.3741C11.4742 10.3741 11.2425 11.5592 11.2425 12.7845V17.432H8.32812V8.04044H11.1277V9.32078H11.1657C11.7091 8.40531 12.6922 7.80156 13.8163 7.80156C13.8564 7.80156 13.8957 7.80222 13.9351 7.80353H13.9292C16.8823 7.80353 17.4283 9.74734 17.4283 12.2772V17.432L17.427 17.4314Z" fill="#6f60b5"/>
</g>
<defs>
<clipPath id="clip0_201_11">
<rect width="21" height="21" fill="white"/>
</clipPath>
</defs>
</svg>
