<svg width="94" height="100" viewBox="0 0 94 100" fill="none" xmlns="http://www.w3.org/2000/svg">
<path d="M48.4268 95.7141C48.4268 98.0821 46.5146 100 44.1536 100H15.6669C7.02418 100 0 92.9551 0 84.287V15.713C0 7.04487 7.02418 0 15.6669 0H44.1536C46.5146 0 48.4268 1.91787 48.4268 4.28587C48.4268 6.65386 46.5146 8.57174 44.1536 8.57174H15.6669C11.7408 8.57174 8.54656 11.7754 8.54656 15.713V84.287C8.54656 88.2246 11.7408 91.4283 15.6669 91.4283H44.1536C46.5146 91.4283 48.4268 93.3461 48.4268 95.7141ZM92.7568 46.9731L75.6637 29.8297C73.9917 28.1528 71.289 28.1528 69.617 29.8297C67.945 31.5066 67.945 34.2173 69.617 35.8942L79.4189 45.725H34.6992C32.3381 45.725 30.4259 47.6428 30.4259 50.0108C30.4259 52.3788 32.3381 54.2967 34.6992 54.2967H79.4189L69.617 64.1275C67.945 65.8044 67.945 68.5151 69.617 70.192C70.4503 71.0278 71.5454 71.451 72.6349 71.451C73.73 71.451 74.825 71.0331 75.6529 70.192L92.746 53.0485C94.418 51.3716 94.418 48.6609 92.746 46.984L92.7568 46.9731Z" fill="white"/>
</svg>
