<svg width="145" height="139" viewBox="0 0 145 139" fill="none" xmlns="http://www.w3.org/2000/svg">
<path d="M17.304 74.304H52.736C62.212 74.304 70.04 66.4608 70.04 56.9664C70.04 54.696 68.186 52.8384 65.92 52.8384C63.654 52.8384 61.8 54.696 61.8 56.9664C61.8 61.92 57.68 66.048 52.736 66.048H17.304C12.36 66.048 8.24 61.92 8.24 56.9664V17.3376C8.24 12.384 12.36 8.256 17.304 8.256H52.736C57.68 8.256 61.8 12.384 61.8 17.3376V44.7888C61.8 47.0592 63.654 48.9168 65.92 48.9168C68.186 48.9168 70.04 47.0592 70.04 44.7888V17.3376C70.04 7.8432 62.212 0 52.736 0H17.304C7.828 0 0 7.8432 0 17.3376V56.9664C0 66.4608 7.828 74.304 17.304 74.304Z" fill="white"/>
<path d="M17.304 138.288H52.736C62.212 138.288 70.04 130.445 70.04 120.95V97.8336C70.04 88.3392 62.212 80.496 52.736 80.496H17.304C7.828 80.496 0 88.3392 0 97.8336V120.95C0 130.445 7.828 138.288 17.304 138.288ZM8.24 97.8336C8.24 92.88 12.36 88.752 17.304 88.752H52.736C57.68 88.752 61.8 92.88 61.8 97.8336V120.95C61.8 125.904 57.68 130.032 52.736 130.032H17.304C12.36 130.032 8.24 125.904 8.24 120.95V97.8336Z" fill="white"/>
<path d="M93.524 138.288H126.896C136.372 138.288 144.2 130.445 144.2 120.95V83.3856C144.2 73.8912 136.372 66.048 126.896 66.048H93.524C84.048 66.048 76.22 73.8912 76.22 83.3856C76.22 85.656 78.074 87.5136 80.34 87.5136C82.606 87.5136 84.46 85.656 84.46 83.3856C84.46 78.432 88.58 74.304 93.524 74.304H126.896C131.84 74.304 135.96 78.432 135.96 83.3856V120.95C135.96 125.904 131.84 130.032 126.896 130.032H93.524C88.58 130.032 84.46 125.904 84.46 120.95V95.3568C84.46 93.0864 82.606 91.2288 80.34 91.2288C78.074 91.2288 76.22 93.0864 76.22 95.3568V120.95C76.22 130.445 84.048 138.288 93.524 138.288Z" fill="white"/>
<path d="M93.524 59.856H126.896C136.372 59.856 144.2 52.0128 144.2 42.5184V17.3376C144.2 7.8432 136.372 0 126.896 0H93.524C84.048 0 76.22 7.8432 76.22 17.3376V42.5184C76.22 52.0128 84.048 59.856 93.524 59.856ZM84.46 17.3376C84.46 12.384 88.58 8.256 93.524 8.256H126.896C131.84 8.256 135.96 12.384 135.96 17.3376V42.5184C135.96 47.472 131.84 51.6 126.896 51.6H93.524C88.58 51.6 84.46 47.472 84.46 42.5184V17.3376Z" fill="white"/>
</svg>
