<svg width="37" height="47" viewBox="0 0 37 47" fill="none" xmlns="http://www.w3.org/2000/svg">
<path d="M19.3538 23.1277C19.3325 23.1334 19.3112 23.1389 19.2901 23.1444L19.289 23.1447C19.2579 23.1529 19.2269 23.1609 19.196 23.1693L19.1554 23.1801C18.8177 23.2698 18.4889 23.3572 18.1717 23.4353L17.7267 23.5454L17.7155 23.5482C16.824 23.7684 15.9126 23.9935 15.0125 24.2614C15.3505 23.4657 15.6649 22.6614 15.9726 21.8743L15.9877 21.8357L15.9938 21.82C16.2232 21.2333 16.4574 20.6342 16.6996 20.0427C16.8236 20.2426 16.953 20.4425 17.0876 20.643C17.7008 21.5548 18.4717 22.3978 19.3538 23.1277Z" fill="black"/>
<path d="M17.077 14.0083C17.135 15.0062 16.9145 15.9662 16.591 16.8871C16.1925 15.7484 16.0068 14.4909 16.505 13.4757C16.6327 13.2154 16.7374 13.0763 16.8053 13.0037C16.9101 13.1618 17.048 13.5153 17.077 14.0083Z" fill="black"/>
<path d="M12.404 26.6489C12.1801 27.04 11.9516 27.406 11.7173 27.7517C11.152 28.5833 10.2275 29.4738 9.75261 29.4738C9.70587 29.4738 9.64932 29.4664 9.56668 29.3813C9.51348 29.3268 9.50496 29.2878 9.50754 29.2345C9.52355 28.9287 9.93854 28.3842 10.5397 27.8793C11.0854 27.4212 11.7021 27.0139 12.404 26.6489Z" fill="black"/>
<path d="M26.6517 24.2989C26.2186 24.4238 25.5828 24.4378 24.9011 24.3413C24.1695 24.2377 23.4232 24.0194 22.6897 23.6977C23.9977 23.5119 25.0124 23.5691 25.8804 23.8693C26.086 23.9404 26.4237 24.1306 26.6517 24.2989Z" fill="black"/>
<path fill-rule="evenodd" clip-rule="evenodd" d="M28.1639 24.3422C28.0914 23.3237 26.3351 22.6703 26.3178 22.6642C25.6388 22.4292 24.9013 22.3151 24.063 22.3151C23.1657 22.3151 22.1983 22.4418 20.9559 22.7252C19.8504 21.9601 18.8954 21.0024 18.1819 19.942C17.8668 19.4735 17.5835 19.0059 17.3366 18.5491C17.9394 17.1421 18.4822 15.6293 18.3836 13.9349C18.3041 12.5763 17.6765 11.6637 16.8231 11.6637C16.2376 11.6637 15.7335 12.0869 15.3237 12.923C14.5925 14.4126 14.7847 16.3188 15.8946 18.5933C15.4949 19.5099 15.1235 20.4601 14.764 21.38L14.7544 21.4045C14.3101 22.5407 13.8521 23.712 13.3364 24.8266C11.8797 25.3893 10.683 26.0717 9.68562 26.9094C9.03227 27.4573 8.24462 28.2948 8.19966 29.169C8.17771 29.5808 8.32233 29.9584 8.61621 30.2609C8.92843 30.5821 9.32068 30.7513 9.75198 30.7518C11.1765 30.7518 12.5475 28.8411 12.8075 28.4579C13.331 27.6877 13.8209 26.8285 14.301 25.8375C15.5101 25.4109 16.7986 25.0924 18.0475 24.7847L18.4948 24.6737C18.831 24.5903 19.1805 24.498 19.5389 24.4023L19.6633 24.3694C20.0034 24.2796 20.3517 24.1876 20.7051 24.0997C21.9875 24.8959 23.3666 25.4152 24.7116 25.6058C25.8445 25.7667 26.8505 25.6734 27.5316 25.3267C28.1444 25.0152 28.1782 24.5344 28.1639 24.3422ZM24.9011 24.3413C25.5828 24.4378 26.2186 24.4238 26.6517 24.2989C26.4237 24.1306 26.086 23.9404 25.8804 23.8693C25.0124 23.5691 23.9977 23.5119 22.6897 23.6977C23.4232 24.0194 24.1695 24.2377 24.9011 24.3413ZM17.7267 23.5454L18.1717 23.4353C18.4889 23.3572 18.8177 23.2698 19.1554 23.1801L19.196 23.1693C19.2269 23.1609 19.2579 23.1529 19.289 23.1447L19.2901 23.1444L19.3538 23.1277C18.4717 22.3978 17.7008 21.5548 17.0876 20.643C16.953 20.4425 16.8236 20.2426 16.6996 20.0427C16.4574 20.6342 16.2232 21.2333 15.9938 21.82L15.9877 21.8357L15.9726 21.8743C15.6649 22.6614 15.3505 23.4657 15.0125 24.2614C15.9126 23.9935 16.824 23.7684 17.7155 23.5482L17.7267 23.5454ZM16.591 16.8871C16.9145 15.9662 17.135 15.0062 17.077 14.0083C17.048 13.5153 16.9101 13.1618 16.8053 13.0037C16.7374 13.0763 16.6327 13.2154 16.505 13.4757C16.0068 14.4909 16.1925 15.7484 16.591 16.8871ZM11.7173 27.7517C11.9516 27.406 12.1801 27.04 12.404 26.6489C11.7021 27.0139 11.0854 27.4212 10.5397 27.8793C9.93854 28.3842 9.52355 28.9287 9.50754 29.2345C9.50496 29.2878 9.51348 29.3268 9.56668 29.3813C9.64932 29.4664 9.70587 29.4738 9.75261 29.4738C10.2275 29.4738 11.152 28.5833 11.7173 27.7517Z" fill="white"/>
<path fill-rule="evenodd" clip-rule="evenodd" d="M36.1893 12.7473L23.5037 0.0109L24.6639 8.16365C24.6676 8.63305 25.4864 11.6637 28.1639 11.6637L36.1893 12.7473ZM24.9011 24.3413C25.5828 24.4378 26.2186 24.4238 26.6517 24.2989C26.4237 24.1306 26.086 23.9404 25.8804 23.8693C25.0124 23.5691 23.9977 23.5119 22.6897 23.6977C23.4232 24.0194 24.1695 24.2377 24.9011 24.3413ZM19.289 23.1447L19.2901 23.1444L19.3538 23.1277C18.4717 22.3978 17.7008 21.5548 17.0876 20.643C16.953 20.4425 16.8236 20.2426 16.6996 20.0427C16.4574 20.6342 16.2232 21.2333 15.9938 21.82L15.9877 21.8357L15.9726 21.8743C15.6649 22.6614 15.3505 23.4657 15.0125 24.2614C15.9126 23.9935 16.824 23.7684 17.7155 23.5482L17.7267 23.5454L18.1717 23.4353C18.4889 23.3572 18.8177 23.2698 19.1554 23.1801L19.196 23.1693C19.2269 23.1609 19.2579 23.1529 19.289 23.1447ZM16.591 16.8871C16.9145 15.9662 17.135 15.0062 17.077 14.0083C17.048 13.5153 16.9101 13.1618 16.8053 13.0037C16.7374 13.0763 16.6327 13.2154 16.505 13.4757C16.0068 14.4909 16.1925 15.7484 16.591 16.8871ZM11.7173 27.7517C11.9516 27.406 12.1801 27.04 12.404 26.6489C11.7021 27.0139 11.0854 27.4212 10.5397 27.8793C9.93854 28.3842 9.52355 28.9287 9.50754 29.2345C9.50496 29.2878 9.51348 29.3268 9.56668 29.3813C9.64932 29.4664 9.70587 29.4738 9.75261 29.4738C10.2275 29.4738 11.152 28.5833 11.7173 27.7517Z" fill="black"/>
<path fill-rule="evenodd" clip-rule="evenodd" d="M33.4112 46.3263C33.8892 46.3209 36.2583 46.1552 36.2583 43.4672L36.2581 12.8159L36.1893 12.7473H28.1837C24.4813 12.7473 23.5037 9.68569 23.5037 8.0686V0.0109L23.4927 0H2.84466C2.37349 0.0054 0 0.168525 0 2.85917L0.000362515 43.4672C0.00547502 43.9409 0.16675 46.3263 2.84503 46.3263H33.4112ZM26.3178 22.6642C26.3351 22.6703 28.0914 23.3237 28.1639 24.3422C28.1782 24.5344 28.1444 25.0152 27.5316 25.3267C26.8505 25.6734 25.8445 25.7667 24.7116 25.6058C23.3666 25.4152 21.9875 24.8959 20.7051 24.0997C20.3517 24.1876 20.0034 24.2796 19.6633 24.3694L19.5389 24.4023C19.1805 24.498 18.831 24.5903 18.4948 24.6737L18.0475 24.7847C16.7986 25.0924 15.5101 25.4109 14.301 25.8375C13.8209 26.8285 13.331 27.6877 12.8075 28.4579C12.5475 28.8411 11.1765 30.7518 9.75198 30.7518C9.32068 30.7513 8.92843 30.5821 8.61621 30.2609C8.32233 29.9584 8.17771 29.5808 8.19966 29.169C8.24462 28.2948 9.03227 27.4573 9.68562 26.9094C10.683 26.0717 11.8797 25.3893 13.3364 24.8266C13.8521 23.712 14.3101 22.5407 14.7544 21.4045L14.764 21.38C15.1235 20.4601 15.4949 19.5099 15.8946 18.5933C14.7847 16.3188 14.5925 14.4126 15.3237 12.923C15.7335 12.0869 16.2376 11.6637 16.8231 11.6637C17.6765 11.6637 18.3041 12.5763 18.3836 13.9349C18.4822 15.6293 17.9394 17.1421 17.3366 18.5491C17.5835 19.0059 17.8668 19.4735 18.1819 19.942C18.8954 21.0024 19.8504 21.9601 20.9559 22.7252C22.1983 22.4418 23.1657 22.3151 24.063 22.3151C24.9013 22.3151 25.6388 22.4292 26.3178 22.6642Z" fill="black"/>
<path d="M23.5037 0.0109V8.0686C23.5037 9.68569 24.4813 12.7473 28.1837 12.7473H36.1893L28.1639 11.6637C25.4864 11.6637 24.6676 8.63305 24.6639 8.16365L23.5037 0.0109Z" fill="white"/>
<path d="M9.0261 42.1636V34.8908H11.8954C12.447 34.8908 12.917 34.9962 13.3052 35.2069C13.6935 35.4152 13.9894 35.7052 14.193 36.0769C14.399 36.4462 14.502 36.8724 14.502 37.3553C14.502 37.8383 14.3978 38.2644 14.1895 38.6337C13.9811 39.0031 13.6793 39.2907 13.2839 39.4967C12.8909 39.7026 12.4151 39.8056 11.8564 39.8056H10.0275V38.5734H11.6078C11.9037 38.5734 12.1476 38.5225 12.3393 38.4207C12.5334 38.3165 12.6779 38.1733 12.7726 37.991C12.8696 37.8063 12.9181 37.5944 12.9181 37.3553C12.9181 37.1139 12.8696 36.9032 12.7726 36.7232C12.6779 36.5409 12.5334 36.4001 12.3393 36.3006C12.1452 36.1988 11.899 36.1479 11.6007 36.1479H10.5637V42.1636H9.0261ZM18.0788 42.1636H15.5007V34.8908H18.1001C18.8317 34.8908 19.4614 35.0364 19.9894 35.3276C20.5173 35.6165 20.9233 36.0319 21.2074 36.5741C21.4938 37.1162 21.6371 37.7649 21.6371 38.5201C21.6371 39.2777 21.4938 39.9287 21.2074 40.4732C20.9233 41.0177 20.5149 41.4356 19.9822 41.7268C19.4519 42.018 18.8175 42.1636 18.0788 42.1636ZM17.0384 40.8461H18.0149C18.4695 40.8461 18.8518 40.7656 19.1619 40.6046C19.4744 40.4413 19.7088 40.1891 19.8651 39.8482C20.0237 39.505 20.103 39.0622 20.103 38.5201C20.103 37.9827 20.0237 37.5435 19.8651 37.2026C19.7088 36.8617 19.4756 36.6108 19.1655 36.4498C18.8554 36.2888 18.473 36.2083 18.0185 36.2083H17.0384V40.8461ZM22.7761 42.1636V34.8908H27.5914V36.1586H24.3137V37.8916H27.2718V39.1593H24.3137V42.1636H22.7761Z" fill="#A6AAAF"/>
</svg>
