<svg width="33" height="37" viewBox="0 0 33 37" fill="none" xmlns="http://www.w3.org/2000/svg">
<path d="M14.7197 15.5272C14.1568 15.8522 13.7029 16.3369 13.4154 16.9198C13.1279 17.5028 13.0197 18.1579 13.1046 18.8024C13.1894 19.4468 13.4635 20.0516 13.892 20.5403C14.3206 21.029 14.8845 21.3796 15.5124 21.5478C16.1402 21.7161 16.8039 21.6943 17.4194 21.4854C18.0349 21.2764 18.5746 20.8896 18.9702 20.3739C19.3659 19.8582 19.5998 19.2368 19.6423 18.5882C19.6847 17.9396 19.5339 17.2929 19.2089 16.73C18.7731 15.9753 18.0553 15.4245 17.2134 15.199C16.3715 14.9734 15.4745 15.0915 14.7197 15.5272ZM29.4497 19.0929C29.234 18.8463 29.0063 18.5991 28.7667 18.3512C28.9341 18.1753 29.096 17.9996 29.2525 17.824C32.2075 14.5038 33.4547 11.1741 32.2991 9.17234C31.191 7.25304 27.8947 6.68108 23.7682 7.48345C23.3617 7.56297 22.9575 7.65267 22.5555 7.75256C22.4785 7.48728 22.3967 7.22352 22.31 6.96128C20.91 2.74263 18.6486 -0.00145316 16.3373 5.77328e-07C14.121 0.00101267 11.9789 2.57089 10.6124 6.54641C10.478 6.9386 10.3536 7.33406 10.2393 7.73279C9.97054 7.66685 9.70065 7.60594 9.42963 7.55006C5.07578 6.65614 1.56902 7.24489 0.415652 9.24781C-0.690292 11.1685 0.466312 14.3079 3.22837 17.4773C3.5023 17.7908 3.78398 18.0974 4.07342 18.3969C3.73221 18.7484 3.40912 19.0996 3.10797 19.4489C0.412855 22.5736 -0.677613 25.6617 0.426546 27.5741C1.56688 29.5495 5.02429 30.1952 9.23251 29.3671C9.57355 29.2994 9.91271 29.2234 10.25 29.1389C10.3735 29.5702 10.5091 29.9977 10.6566 30.4215C12.017 34.3172 14.1471 36.8044 16.3556 36.8036C18.6364 36.8022 20.9228 34.13 22.3081 30.0708C22.4175 29.7501 22.521 29.4169 22.6192 29.0739C23.0549 29.1823 23.4933 29.2785 23.9346 29.3625C27.9892 30.1296 31.2079 29.5262 32.3101 27.6125C33.4482 25.6356 32.2748 22.3201 29.4497 19.0929ZM1.7781 10.0323C2.48815 8.79941 5.35399 8.31841 9.11317 9.09016C9.35343 9.13956 9.59779 9.19477 9.84626 9.25577C9.47925 10.8793 9.22029 12.5254 9.07107 14.1831C7.71468 15.1374 6.42147 16.1784 5.19955 17.2997C4.93033 17.0212 4.6683 16.7361 4.41346 16.4442C2.04687 13.7286 1.11161 11.1897 1.7781 10.0323ZM8.93022 20.573C7.9907 19.8616 7.11756 19.1328 6.32507 18.3998C7.11701 17.6713 7.9907 16.9449 8.92831 16.2354C8.89462 16.9582 8.87792 17.6815 8.87822 18.4054C8.87872 19.1282 8.89606 19.8507 8.93022 20.573ZM8.9291 27.8244C7.33415 28.179 5.68756 28.2371 4.07158 27.9958C3.62859 27.9613 3.19737 27.8363 2.80459 27.6286C2.4118 27.4209 2.06579 27.1348 1.78792 26.7881C1.11797 25.6275 1.99358 23.1482 4.29851 20.4759C4.58829 20.1409 4.88757 19.8148 5.19635 19.4974C6.41845 20.6245 7.71377 21.6696 9.07381 22.6258C9.22507 24.3048 9.48708 25.9719 9.85811 27.6163C9.55021 27.6933 9.24054 27.7627 8.9291 27.8244ZM21.9964 13.0306C21.3792 12.6417 20.7544 12.2653 20.122 11.9014C19.4996 11.5432 18.8698 11.1984 18.2325 10.8671C19.3237 10.4083 20.3964 10.0164 21.4319 9.69707C21.676 10.798 21.8644 11.9106 21.9964 13.0306ZM12.0993 7.05745C13.27 3.65103 15.0024 1.57276 16.3381 1.57219C17.7607 1.57151 19.6091 3.814 20.8177 7.45638C20.8962 7.69382 20.9705 7.9326 21.0404 8.17272C19.4525 8.66521 17.899 9.26224 16.39 9.9599C14.8872 9.25403 13.3386 8.65035 11.7546 8.15296C11.8605 7.78502 11.9754 7.41985 12.0993 7.05745ZM11.3625 9.67747C12.4427 10.0175 13.505 10.4118 14.5454 10.8589C13.2563 11.5241 12.0004 12.2488 10.7779 13.0328C10.9256 11.8588 11.1221 10.734 11.3625 9.67747ZM10.7806 23.7744C11.3903 24.1647 12.0088 24.5406 12.6363 24.902C13.2764 25.2705 13.9249 25.6235 14.582 25.9611C13.5336 26.4236 12.4622 26.832 11.3719 27.1847C11.1288 26.1135 10.9301 24.9689 10.7806 23.7744ZM20.82 29.5627C20.3305 31.1216 19.5582 32.577 18.5417 33.8563C18.2905 34.2228 17.9668 34.5339 17.5906 34.7703C17.2145 35.0068 16.7939 35.1636 16.3547 35.231C15.0147 35.2318 13.3043 33.2344 12.1409 29.9029C12.0039 29.509 11.8778 29.1115 11.7627 28.7105C13.3543 28.197 14.9092 27.5762 16.4168 26.8524C17.9383 27.5546 19.5042 28.1561 21.1044 28.6531C21.017 28.9585 20.9222 29.2617 20.82 29.5627ZM21.4866 27.1259C20.4392 26.8021 19.3509 26.4036 18.244 25.9381C18.868 25.6097 19.4965 25.2628 20.1296 24.8976C20.7793 24.5225 21.4123 24.1379 22.0289 23.744C21.9061 24.8799 21.7251 26.0086 21.4866 27.1259ZM22.3079 18.3986C22.3092 19.5161 22.2743 20.6328 22.2032 21.7485C21.2966 22.3621 20.3394 22.9612 19.3436 23.5361C18.3518 24.1087 17.3692 24.6349 16.4053 25.1111C15.391 24.625 14.3962 24.1012 13.421 23.5396C12.4512 22.9814 11.5037 22.387 10.5785 21.7565C10.4939 20.6411 10.4513 19.5236 10.4507 18.4042C10.4499 17.2855 10.4918 16.1684 10.5759 15.052C11.4823 14.4331 12.4325 13.8344 13.4149 13.2672C14.4018 12.6974 15.3968 12.1734 16.3862 11.6985C17.388 12.1854 18.3718 12.7072 19.3375 13.2639C20.3066 13.8208 21.2567 14.4089 22.1879 15.028C22.2679 16.1498 22.3078 17.2733 22.3079 18.3986ZM24.0684 9.02689C27.604 8.33918 30.2698 8.8018 30.9376 9.95843C31.649 11.1906 30.6294 13.912 28.0783 16.7788C27.9373 16.9369 27.791 17.0958 27.6395 17.2553C26.3964 16.1317 25.0783 15.0939 23.6942 14.1494C23.5545 12.5097 23.3053 10.8812 22.9481 9.27487C23.3288 9.18121 23.7022 9.09855 24.0684 9.02689ZM23.8294 16.1754C24.763 16.857 25.6606 17.5866 26.5186 18.3612C25.6644 19.1486 24.7696 19.8908 23.8379 20.5847C23.8665 19.8561 23.8805 19.1272 23.88 18.3978C23.8797 17.6569 23.8628 16.9161 23.8294 16.1754ZM30.9474 26.8277C30.2785 27.9892 27.6942 28.4735 24.2267 27.8174C23.8293 27.7424 23.4215 27.6531 23.0034 27.5496C23.352 25.9225 23.5902 24.2738 23.7164 22.6147C25.0981 21.6536 26.4121 20.5986 27.649 19.4572C27.8654 19.682 28.0713 19.9058 28.2666 20.1286C29.3727 21.3312 30.2479 22.7271 30.8485 24.2466C31.0406 24.6472 31.1485 25.083 31.1655 25.5269C31.1825 25.9709 31.1082 26.4136 30.9474 26.8277Z" fill="#6F60B5"/>
</svg>
