<svg width="185" height="227" viewBox="0 0 185 227" fill="none" xmlns="http://www.w3.org/2000/svg">
<path d="M25.1241 0C11.2789 0 0 11.2782 0 25.1249V200.984C0.00184204 201.14 0.0124112 201.295 0.031655 201.45C0.284883 215.086 11.4516 226.126 25.1392 226.126H180.047C182.36 226.134 184.242 224.26 184.25 221.946V200.984V180.047V4.17163C184.246 3.06105 183.8 1.99789 183.012 1.2157C182.224 0.433506 181.157 -0.00381212 180.047 0.000482995L25.1241 0ZM25.1241 8.37513H83.7304V87.9456C83.7298 91.6712 88.2306 93.535 90.87 90.9064L117.229 64.5464L143.596 90.8817C146.225 93.5001 150.701 91.6557 150.728 87.9456V8.37513H175.86V175.875H25.1321C18.6959 175.875 12.8273 178.325 8.37458 182.32V25.1249C8.37458 15.773 15.7734 8.37513 25.1241 8.37513ZM92.1052 8.38334H142.353V77.8365L120.198 55.6724C118.565 54.0486 115.926 54.0486 114.293 55.6724L92.1052 77.8365V8.38334ZM25.1321 184.25H175.86V191.995L175.868 217.742H25.1321C15.7814 217.742 8.37458 210.339 8.37458 200.984C8.37458 191.628 15.7814 184.25 25.1321 184.25Z" fill="white"/>
</svg>
