<svg width="52" height="47" viewBox="0 0 52 47" fill="none" xmlns="http://www.w3.org/2000/svg">
<path d="M0 16C0 7.16343 7.16344 0 16 0H36C44.8366 0 52 7.16345 52 16V30.8C52 39.6366 44.8366 46.8 36 46.8H16C7.16344 46.8 0 39.6366 0 30.8V16Z" fill="#D3D7DD"/>
<path d="M0 16C0 7.16343 7.16344 0 16 0H36C44.8366 0 52 7.16345 52 16V30.8C52 39.6366 44.8366 46.8 36 46.8H16C7.16344 46.8 0 39.6366 0 30.8V16Z" fill="#D3D7DD"/>
<g clip-path="url(#clip0_111_213)">
<path d="M32.2818 42.268C30.6895 42.9118 28.971 43.1825 27.258 43.0591C25.5491 43.2003 23.8313 42.929 22.2491 42.268C22.031 42.0916 21.8555 41.8683 21.7358 41.6146C21.6161 41.3609 21.5552 41.0835 21.5578 40.803C21.5578 40.2539 21.5378 38.8114 21.5279 36.8923C15.1289 38.2824 13.7788 33.8076 13.7788 33.8076C13.3557 32.4172 12.4492 31.2239 11.2232 30.4434C9.13678 29.0159 11.3804 29.0458 11.3804 29.0458C12.1095 29.1467 12.806 29.4127 13.4167 29.8235C14.0274 30.2344 14.5362 30.7793 14.9043 31.4167C15.216 31.984 15.637 32.4839 16.1431 32.8874C16.6492 33.291 17.2303 33.5902 17.8527 33.7677C18.4752 33.9452 19.1266 33.9976 19.7695 33.9218C20.4123 33.846 21.0337 33.6434 21.5977 33.3259C21.7031 32.1587 22.2217 31.0675 23.0602 30.2487C17.954 29.6697 12.5833 27.6957 12.5833 18.8834C12.5498 16.5978 13.3969 14.387 14.9492 12.7091C14.2482 10.7258 14.3294 8.55001 15.1763 6.62457C15.1763 6.62457 17.1055 6.00564 21.5004 8.983C25.27 7.94949 29.2484 7.94949 33.018 8.983C37.4104 6.00564 39.3371 6.62457 39.3371 6.62457C40.1855 8.54952 40.2677 10.7256 39.5667 12.7091C41.119 14.3868 41.9653 16.598 41.9301 18.8834C41.9301 27.7181 36.5519 29.6647 31.4282 30.2338C31.9771 30.791 32.4003 31.4592 32.6693 32.1936C32.9384 32.928 33.0471 33.7115 32.988 34.4914C32.988 37.5661 32.9606 40.0493 32.9606 40.803C32.9749 41.084 32.9206 41.3642 32.8023 41.6194C32.6841 41.8747 32.5054 42.0973 32.2818 42.268Z" fill="#6F60B5"/>
</g>
<defs>
<clipPath id="clip0_111_213">
<rect width="38.1333" height="38.1333" fill="white" transform="translate(7.06641 6.33333)"/>
</clipPath>
</defs>
</svg>
